<svg width="34" height="34" viewBox="0 0 34 34" fill="none" xmlns="http://www.w3.org/2000/svg">
<path d="M21.2412 17L33.1126 5.12863C33.676 4.56622 33.9929 3.80302 33.9936 3.00694C33.9943 2.21085 33.6787 1.4471 33.1163 0.883684C32.5539 0.320271 31.7907 0.0033544 30.9946 0.00265136C30.1985 0.00194831 29.4348 0.317517 28.8714 0.879935L17 12.7513L5.12863 0.879935C4.56522 0.316522 3.80107 0 3.00428 0C2.2075 0 1.44335 0.316522 0.879935 0.879935C0.316522 1.44335 0 2.2075 0 3.00428C0 3.80107 0.316522 4.56522 0.879935 5.12863L12.7513 17L0.879935 28.8714C0.316522 29.4348 0 30.1989 0 30.9957C0 31.7925 0.316522 32.5567 0.879935 33.1201C1.44335 33.6835 2.2075 34 3.00428 34C3.80107 34 4.56522 33.6835 5.12863 33.1201L17 21.2487L28.8714 33.1201C29.4348 33.6835 30.1989 34 30.9957 34C31.7925 34 32.5567 33.6835 33.1201 33.1201C33.6835 32.5567 34 31.7925 34 30.9957C34 30.1989 33.6835 29.4348 33.1201 28.8714L21.2412 17Z" fill="white" fill-opacity="0.75"/>
</svg>
